/vscmnt/brussel_pixiu_data/_data_brussel/112/vsc11236/PredSimResults/SUBJ07opt3D/weighted-expIG/worker_05.mot
version=1
nRows=10
nColumns=50
inDegrees=yes
endheader
                time	         pelvis_tilt	         pelvis_list	     pelvis_rotation	           pelvis_tx	           pelvis_ty	           pelvis_tz	       hip_flexion_r	     hip_adduction_r	      hip_rotation_r	        knee_angle_r	       ankle_angle_r	         mtp_angle_r	       hip_flexion_l	     hip_adduction_l	      hip_rotation_l	        knee_angle_l	       ankle_angle_l	         mtp_angle_l	    lumbar_extension	      lumbar_bending	     lumbar_rotation	 ercspn_r/activation	 intobl_r/activation	 extobl_r/activation	    abd_r/activation	    add_r/activation	hamstrings_r/activation	bifemsh_r/activation	glut_max_r/activation	iliopsoas_r/activation	rect_fem_r/activation	  vasti_r/activation	gastroc_r/activation	 soleus_r/activation	tib_ant_r/activation	 ercspn_l/activation	 intobl_l/activation	 extobl_l/activation	    abd_l/activation	    add_l/activation	hamstrings_l/activation	bifemsh_l/activation	glut_max_l/activation	iliopsoas_l/activation	rect_fem_l/activation	  vasti_l/activation	gastroc_l/activation	 soleus_l/activation	tib_ant_l/activation	
          1.72903154	         -3.58237665	         -0.00774090	         -9.49926062	          1.95380564	          0.84998732	          0.01553047	        -14.00224889	          0.29648177	          5.10216980	         -8.82408410	          9.42335656	         27.63448614	         30.05086851	         -2.83367057	         -5.90675033	         -8.80057227	          2.36678101	          0.26774256	        -11.65799065	          1.76235983	          1.43237205	          0.10155059	          0.00999999	          0.01000000	          0.03603658	          0.05145859	          0.01624737	          0.17418043	          0.02019650	          0.39948204	          0.01000012	          0.01000001	          0.18380503	          0.33616650	          0.01712177	          0.12326992	          0.12685267	          0.01000000	          0.01297424	          0.17750953	          0.07554409	          0.09471399	          0.09766206	          0.04396237	          0.01000008	          0.01000002	          0.01000000	          0.00999999	          0.41471508	
          1.74055841	         -3.58360880	         -0.08585904	         -9.51103787	          1.96977896	          0.84821149	          0.01493194	        -14.57205251	          0.22270356	          4.77936107	         -9.75282070	          8.60712032	         29.22694437	         30.04841658	         -2.65650620	         -5.62999235	        -10.67873491	          2.05573635	          0.24520418	        -11.47652463	          1.40615713	          1.64875296	          0.12408848	          0.00999999	          0.01000000	          0.03022913	          0.08801929	          0.01362923	          0.15524079	          0.01694175	          0.43305606	          0.01000003	          0.01000000	          0.15418403	          0.31911129	          0.01436252	          0.10553056	          0.12092263	          0.01000000	          0.01088338	          0.18260715	          0.06542904	          0.07945063	          0.16000374	          0.03687764	          0.01000001	          0.01000000	          0.01421137	          0.01192114	          0.44209984	
          1.75208529	         -3.57923499	         -0.17189655	         -9.47217024	          1.98595937	          0.84665409	          0.01427130	        -14.96179596	          0.17973948	          4.41446645	        -11.04033264	          7.67646717	         30.82039474	         29.88536424	         -2.51091289	         -5.27876198	        -12.34649371	          1.71474605	          0.23830828	        -11.28698275	          1.05236264	          1.85832590	          0.14244053	          0.00999999	          0.01000000	          0.02535757	          0.08135871	          0.01143304	          0.13501658	          0.01421151	          0.37970836	          0.01000003	          0.00999999	          0.12933658	          0.29699768	          0.01204794	          0.12478211	          0.10143541	          0.01000000	          0.06625377	          0.18365202	          0.06006503	          0.09161111	          0.17574741	          0.03093464	          0.01000000	          0.00999999	          0.01192114	          0.00999999	          0.51051732	
          1.76361217	         -3.57087991	         -0.27310421	         -9.38163227	          2.00215811	          0.84544514	          0.01351399	        -15.12028581	          0.17431966	          4.01020052	        -12.73863000	          6.58023943	         32.39164253	         29.63622515	         -2.37612897	         -4.98154644	        -13.85957016	          1.35649425	          0.21946473	        -11.10854370	          0.71343759	          2.05561855	          0.17596477	          0.00999999	          0.01000000	          0.02127108	          0.07759766	          0.01166512	          0.11325832	          0.01192126	          0.31851667	          0.01000004	          0.00999999	          0.10849341	          0.27214448	          0.01010636	          0.14075116	          0.08508864	          0.00999999	          0.11995287	          0.18774804	          0.05257690	          0.07684758	          0.19986475	          0.02594939	          0.01000000	          0.00999999	          0.01000000	          0.00999999	          0.53129641	
          1.77513904	         -3.55928588	         -0.38093492	         -9.24417248	          2.01817342	          0.84473479	          0.01267352	        -14.99943017	          0.19798708	          3.57124376	        -14.88978358	          5.28806627	         33.85093662	         29.40119977	         -2.25034123	         -4.74589162	        -15.42733169	          1.28011938	          0.19768768	        -10.95585200	          0.37912165	          2.23648889	          0.21540297	          0.00999999	          0.01000000	          0.01784315	          0.09174391	          0.01254979	          0.10174978	          0.01000010	          0.26718629	          0.01000001	          0.00999999	          0.09100921	          0.23177888	          0.00999999	          0.14578430	          0.07137623	          0.00999999	          0.16246134	          0.20088239	          0.04666593	          0.06446325	          0.21904041	          0.02176753	          0.01000000	          0.02586411	          0.01000000	          0.00999999	          0.52560390	
          1.78666592	         -3.54588571	         -0.48840452	         -9.06176104	          2.03383496	          0.84466179	          0.01176095	        -14.55081051	          0.24409665	          3.09869671	        -17.54352181	          3.82071996	         34.97863684	         29.22019985	         -2.12854674	         -4.56675529	        -17.09946597	          1.55812674	          0.18208745	        -10.83903185	          0.04382620	          2.39773245	          0.24264614	          0.00999999	          0.01000000	          0.01496765	          0.12790937	          0.01315955	          0.09080118	          0.00999999	          0.22412802	          0.01000000	          0.00999999	          0.07634267	          0.19442668	          0.00999999	          0.15563195	          0.05987363	          0.00999999	          0.18553749	          0.21843382	          0.04544167	          0.05407472	          0.22805098	          0.01825959	          0.01000000	          0.05983817	          0.01000000	          0.00999999	          0.47030623	
          1.79819280	         -3.53224117	         -0.59691606	         -8.83692551	          2.04909901	          0.84527314	          0.01079887	        -13.75192945	          0.31107726	          2.59590311	        -20.72108305	          2.22927136	         35.47765759	         29.03573861	         -2.00579738	         -4.42319171	        -18.75330828	          2.18116116	          0.20658665	        -10.75294256	         -0.28894773	          2.53801001	          0.25945977	          0.00999999	          0.01000000	          0.01255555	          0.16563253	          0.01362708	          0.07616827	          0.01000000	          0.18800879	          0.01000000	          0.00999999	          0.06403971	          0.16309395	          0.00999999	          0.15067745	          0.05022472	          0.00999999	          0.19575906	          0.22722060	          0.04584159	          0.04536035	          0.21876795	          0.01531698	          0.01000000	          0.11823182	          0.01000000	          0.00999999	          0.39451428	
          1.80971968	         -3.52116359	         -0.70733364	         -8.57133662	          2.06397872	          0.84656863	          0.00980275	        -12.60218585	          0.39345433	          2.08503521	        -24.38754529	          0.46204364	         35.21395764	         28.73673433	         -1.86962687	         -4.27761138	        -20.16639735	          3.04228934	          0.31987599	        -10.68831036	         -0.61451665	          2.65681278	          0.25982268	          0.00999999	          0.01000000	          0.01053216	          0.18011727	          0.01261430	          0.06490135	          0.00999999	          0.15771033	          0.01000000	          0.00999999	          0.05371942	          0.13681063	          0.00999999	          0.12639513	          0.04213078	          0.00999999	          0.19420209	          0.22152497	          0.05190139	          0.03805034	          0.19126411	          0.01284858	          0.01000000	          0.15693810	          0.01000001	          0.00999999	          0.33093654	
          1.82124655	         -3.51581324	         -0.82169611	         -8.26541002	          2.07847380	          0.84847173	          0.00876880	        -11.12679736	          0.48776687	          1.60397189	        -28.42469269	         -1.62623144	         34.24117066	         28.25439215	         -1.71175702	         -4.09261942	        -21.17830277	          3.91835907	          0.52090748	        -10.64376810	         -0.92489708	          2.75468760	          0.24813359	          0.00999999	          0.01000000	          0.00999999	          0.19285000	          0.02143272	          0.05825387	          0.01000000	          0.13229460	          0.01000000	          0.00999999	          0.04506230	          0.11476298	          0.00999999	          0.10602599	          0.03534122	          0.00999999	          0.18719457	          0.20398782	          0.06326124	          0.03191837	          0.16044105	          0.01077798	          0.01000000	          0.19623577	          0.01000000	          0.00999999	          0.27760465	
          1.83277343	         -3.51851236	         -0.94146947	         -7.91884256	          2.09257636	          0.85086190	          0.00771234	         -9.37125359	          0.59937643	          1.18718593	        -32.68380830	         -4.07101179	         32.51509044	         27.56312018	         -1.53460812	         -3.85716874	        -21.71920399	          4.67841612	          0.79716710	        -10.62143190	         -1.21736220	          2.82994753	          0.24468741	          0.00999999	          0.01000000	          0.01000000	          0.18777820	          0.04046035	          0.05424792	          0.01759475	          0.11097474	          0.01000000	          0.00999999	          0.03780031	          0.09626841	          0.03097754	          0.08893942	          0.02964582	          0.01000000	          0.18437509	          0.17815649	          0.07502223	          0.02677459	          0.13458526	          0.01000000	          0.01000000	          0.21760786	          0.01000000	          0.00999999	          0.24348727	
